<mxfile host="app.diagrams.net" agent="Mozilla/5.0 (Windows NT 10.0; Win64; x64) AppleWebKit/537.36 (KHTML, like Gecko) Chrome/130.0.0.0 Safari/537.36" version="24.8.3">
  <diagram id="C5RBs43oDa-KdzZeNtuy" name="Page-1">
    <mxGraphModel dx="1050" dy="574" grid="1" gridSize="10" guides="1" tooltips="1" connect="1" arrows="1" fold="1" page="1" pageScale="1" pageWidth="827" pageHeight="1169" math="0" shadow="0">
      <root>
        <mxCell id="WIyWlLk6GJQsqaUBKTNV-0" />
        <mxCell id="WIyWlLk6GJQsqaUBKTNV-1" parent="WIyWlLk6GJQsqaUBKTNV-0" />
        <mxCell id="1aA6njlf_XzDuwM_Yvuv-1" value="" style="edgeStyle=orthogonalEdgeStyle;rounded=0;orthogonalLoop=1;jettySize=auto;html=1;" edge="1" parent="WIyWlLk6GJQsqaUBKTNV-1" source="WIyWlLk6GJQsqaUBKTNV-3" target="1aA6njlf_XzDuwM_Yvuv-0">
          <mxGeometry relative="1" as="geometry" />
        </mxCell>
        <mxCell id="WIyWlLk6GJQsqaUBKTNV-3" value="开始" style="rounded=1;whiteSpace=wrap;html=1;fontSize=12;glass=0;strokeWidth=1;shadow=0;" parent="WIyWlLk6GJQsqaUBKTNV-1" vertex="1">
          <mxGeometry x="10" y="170" width="60" height="40" as="geometry" />
        </mxCell>
        <mxCell id="1aA6njlf_XzDuwM_Yvuv-7" value="" style="edgeStyle=orthogonalEdgeStyle;rounded=0;orthogonalLoop=1;jettySize=auto;html=1;" edge="1" parent="WIyWlLk6GJQsqaUBKTNV-1" source="WIyWlLk6GJQsqaUBKTNV-6">
          <mxGeometry relative="1" as="geometry">
            <mxPoint x="470" y="190" as="targetPoint" />
          </mxGeometry>
        </mxCell>
        <mxCell id="1aA6njlf_XzDuwM_Yvuv-9" value="是" style="edgeLabel;html=1;align=center;verticalAlign=middle;resizable=0;points=[];" vertex="1" connectable="0" parent="1aA6njlf_XzDuwM_Yvuv-7">
          <mxGeometry x="0.0364" y="-4" relative="1" as="geometry">
            <mxPoint as="offset" />
          </mxGeometry>
        </mxCell>
        <mxCell id="1aA6njlf_XzDuwM_Yvuv-23" value="" style="edgeStyle=orthogonalEdgeStyle;rounded=0;orthogonalLoop=1;jettySize=auto;html=1;entryX=0.5;entryY=0;entryDx=0;entryDy=0;" edge="1" parent="WIyWlLk6GJQsqaUBKTNV-1" source="WIyWlLk6GJQsqaUBKTNV-6" target="1aA6njlf_XzDuwM_Yvuv-13">
          <mxGeometry relative="1" as="geometry">
            <mxPoint x="364" y="60" as="targetPoint" />
            <Array as="points">
              <mxPoint x="364" y="70" />
              <mxPoint x="750" y="70" />
            </Array>
          </mxGeometry>
        </mxCell>
        <mxCell id="1aA6njlf_XzDuwM_Yvuv-24" value="否" style="edgeLabel;html=1;align=center;verticalAlign=middle;resizable=0;points=[];" vertex="1" connectable="0" parent="1aA6njlf_XzDuwM_Yvuv-23">
          <mxGeometry x="-0.8088" y="-4" relative="1" as="geometry">
            <mxPoint as="offset" />
          </mxGeometry>
        </mxCell>
        <mxCell id="WIyWlLk6GJQsqaUBKTNV-6" value="是否告警" style="rhombus;whiteSpace=wrap;html=1;shadow=0;fontFamily=Helvetica;fontSize=12;align=center;strokeWidth=1;spacing=6;spacingTop=-4;" parent="WIyWlLk6GJQsqaUBKTNV-1" vertex="1">
          <mxGeometry x="314" y="150" width="100" height="80" as="geometry" />
        </mxCell>
        <mxCell id="1aA6njlf_XzDuwM_Yvuv-39" value="" style="edgeStyle=orthogonalEdgeStyle;rounded=0;orthogonalLoop=1;jettySize=auto;html=1;" edge="1" parent="WIyWlLk6GJQsqaUBKTNV-1" source="WIyWlLk6GJQsqaUBKTNV-10" target="1aA6njlf_XzDuwM_Yvuv-38">
          <mxGeometry relative="1" as="geometry" />
        </mxCell>
        <mxCell id="1aA6njlf_XzDuwM_Yvuv-45" value="" style="edgeStyle=orthogonalEdgeStyle;rounded=0;orthogonalLoop=1;jettySize=auto;html=1;" edge="1" parent="WIyWlLk6GJQsqaUBKTNV-1" source="1aA6njlf_XzDuwM_Yvuv-47" target="1aA6njlf_XzDuwM_Yvuv-38">
          <mxGeometry relative="1" as="geometry" />
        </mxCell>
        <mxCell id="1aA6njlf_XzDuwM_Yvuv-51" value="" style="edgeStyle=orthogonalEdgeStyle;rounded=0;orthogonalLoop=1;jettySize=auto;html=1;" edge="1" parent="WIyWlLk6GJQsqaUBKTNV-1" source="WIyWlLk6GJQsqaUBKTNV-10" target="1aA6njlf_XzDuwM_Yvuv-50">
          <mxGeometry relative="1" as="geometry" />
        </mxCell>
        <mxCell id="1aA6njlf_XzDuwM_Yvuv-52" value="否" style="edgeLabel;html=1;align=center;verticalAlign=middle;resizable=0;points=[];" vertex="1" connectable="0" parent="1aA6njlf_XzDuwM_Yvuv-51">
          <mxGeometry x="0.312" y="2" relative="1" as="geometry">
            <mxPoint as="offset" />
          </mxGeometry>
        </mxCell>
        <mxCell id="WIyWlLk6GJQsqaUBKTNV-10" value="设备是否在线" style="rhombus;whiteSpace=wrap;html=1;shadow=0;fontFamily=Helvetica;fontSize=12;align=center;strokeWidth=1;spacing=6;spacingTop=-4;" parent="WIyWlLk6GJQsqaUBKTNV-1" vertex="1">
          <mxGeometry x="500" y="310" width="100" height="80" as="geometry" />
        </mxCell>
        <mxCell id="1aA6njlf_XzDuwM_Yvuv-28" value="" style="edgeStyle=orthogonalEdgeStyle;rounded=0;orthogonalLoop=1;jettySize=auto;html=1;" edge="1" parent="WIyWlLk6GJQsqaUBKTNV-1" source="WIyWlLk6GJQsqaUBKTNV-11" target="1aA6njlf_XzDuwM_Yvuv-27">
          <mxGeometry relative="1" as="geometry" />
        </mxCell>
        <mxCell id="WIyWlLk6GJQsqaUBKTNV-11" value="开始" style="rounded=1;whiteSpace=wrap;html=1;fontSize=12;glass=0;strokeWidth=1;shadow=0;" parent="WIyWlLk6GJQsqaUBKTNV-1" vertex="1">
          <mxGeometry x="50" y="330" width="60" height="40" as="geometry" />
        </mxCell>
        <mxCell id="1aA6njlf_XzDuwM_Yvuv-2" value="" style="edgeStyle=orthogonalEdgeStyle;rounded=0;orthogonalLoop=1;jettySize=auto;html=1;" edge="1" parent="WIyWlLk6GJQsqaUBKTNV-1" source="1aA6njlf_XzDuwM_Yvuv-0" target="WIyWlLk6GJQsqaUBKTNV-6">
          <mxGeometry relative="1" as="geometry" />
        </mxCell>
        <mxCell id="1aA6njlf_XzDuwM_Yvuv-6" value="" style="edgeStyle=orthogonalEdgeStyle;rounded=0;orthogonalLoop=1;jettySize=auto;html=1;" edge="1" parent="WIyWlLk6GJQsqaUBKTNV-1" source="1aA6njlf_XzDuwM_Yvuv-0" target="1aA6njlf_XzDuwM_Yvuv-3">
          <mxGeometry relative="1" as="geometry" />
        </mxCell>
        <mxCell id="1aA6njlf_XzDuwM_Yvuv-0" value="新增设备" style="rounded=1;whiteSpace=wrap;html=1;" vertex="1" parent="WIyWlLk6GJQsqaUBKTNV-1">
          <mxGeometry x="100" y="170" width="80" height="40" as="geometry" />
        </mxCell>
        <mxCell id="1aA6njlf_XzDuwM_Yvuv-3" value="设备上报数据" style="rounded=1;whiteSpace=wrap;html=1;" vertex="1" parent="WIyWlLk6GJQsqaUBKTNV-1">
          <mxGeometry x="210" y="170" width="80" height="40" as="geometry" />
        </mxCell>
        <mxCell id="1aA6njlf_XzDuwM_Yvuv-12" value="" style="edgeStyle=orthogonalEdgeStyle;rounded=0;orthogonalLoop=1;jettySize=auto;html=1;" edge="1" parent="WIyWlLk6GJQsqaUBKTNV-1" source="1aA6njlf_XzDuwM_Yvuv-10" target="1aA6njlf_XzDuwM_Yvuv-11">
          <mxGeometry relative="1" as="geometry" />
        </mxCell>
        <mxCell id="1aA6njlf_XzDuwM_Yvuv-18" value="是" style="edgeLabel;html=1;align=center;verticalAlign=middle;resizable=0;points=[];" vertex="1" connectable="0" parent="1aA6njlf_XzDuwM_Yvuv-12">
          <mxGeometry x="0.2" y="3" relative="1" as="geometry">
            <mxPoint as="offset" />
          </mxGeometry>
        </mxCell>
        <mxCell id="1aA6njlf_XzDuwM_Yvuv-20" value="" style="edgeStyle=orthogonalEdgeStyle;rounded=0;orthogonalLoop=1;jettySize=auto;html=1;entryX=0.5;entryY=0;entryDx=0;entryDy=0;" edge="1" parent="WIyWlLk6GJQsqaUBKTNV-1" source="1aA6njlf_XzDuwM_Yvuv-10" target="1aA6njlf_XzDuwM_Yvuv-13">
          <mxGeometry relative="1" as="geometry">
            <mxPoint x="520" y="70" as="targetPoint" />
            <Array as="points">
              <mxPoint x="520" y="90" />
              <mxPoint x="750" y="90" />
            </Array>
          </mxGeometry>
        </mxCell>
        <mxCell id="1aA6njlf_XzDuwM_Yvuv-21" value="否" style="edgeLabel;html=1;align=center;verticalAlign=middle;resizable=0;points=[];" vertex="1" connectable="0" parent="1aA6njlf_XzDuwM_Yvuv-20">
          <mxGeometry x="-0.8103" y="-2" relative="1" as="geometry">
            <mxPoint as="offset" />
          </mxGeometry>
        </mxCell>
        <mxCell id="1aA6njlf_XzDuwM_Yvuv-10" value="是否配置处理人" style="rhombus;whiteSpace=wrap;html=1;shadow=0;fontFamily=Helvetica;fontSize=12;align=center;strokeWidth=1;spacing=6;spacingTop=-4;" vertex="1" parent="WIyWlLk6GJQsqaUBKTNV-1">
          <mxGeometry x="470" y="150" width="100" height="80" as="geometry" />
        </mxCell>
        <mxCell id="1aA6njlf_XzDuwM_Yvuv-14" value="" style="edgeStyle=orthogonalEdgeStyle;rounded=0;orthogonalLoop=1;jettySize=auto;html=1;" edge="1" parent="WIyWlLk6GJQsqaUBKTNV-1" source="1aA6njlf_XzDuwM_Yvuv-11" target="1aA6njlf_XzDuwM_Yvuv-13">
          <mxGeometry relative="1" as="geometry" />
        </mxCell>
        <mxCell id="1aA6njlf_XzDuwM_Yvuv-11" value="现场处理" style="whiteSpace=wrap;html=1;shadow=0;strokeWidth=1;spacing=6;spacingTop=-4;" vertex="1" parent="WIyWlLk6GJQsqaUBKTNV-1">
          <mxGeometry x="600" y="170" width="80" height="40" as="geometry" />
        </mxCell>
        <mxCell id="1aA6njlf_XzDuwM_Yvuv-13" value="结束" style="ellipse;whiteSpace=wrap;html=1;shadow=0;strokeWidth=1;spacing=6;spacingTop=-4;" vertex="1" parent="WIyWlLk6GJQsqaUBKTNV-1">
          <mxGeometry x="710" y="150" width="80" height="80" as="geometry" />
        </mxCell>
        <mxCell id="1aA6njlf_XzDuwM_Yvuv-27" value="输入设备参数" style="rounded=1;whiteSpace=wrap;html=1;fontSize=12;glass=0;strokeWidth=1;shadow=0;" vertex="1" parent="WIyWlLk6GJQsqaUBKTNV-1">
          <mxGeometry x="160" y="330" width="60" height="40" as="geometry" />
        </mxCell>
        <mxCell id="1aA6njlf_XzDuwM_Yvuv-31" value="" style="edgeStyle=orthogonalEdgeStyle;rounded=0;orthogonalLoop=1;jettySize=auto;html=1;" edge="1" parent="WIyWlLk6GJQsqaUBKTNV-1" source="1aA6njlf_XzDuwM_Yvuv-40" target="1aA6njlf_XzDuwM_Yvuv-30">
          <mxGeometry relative="1" as="geometry">
            <mxPoint x="220" y="350" as="sourcePoint" />
            <mxPoint x="440" y="350" as="targetPoint" />
          </mxGeometry>
        </mxCell>
        <mxCell id="1aA6njlf_XzDuwM_Yvuv-44" value="是" style="edgeLabel;html=1;align=center;verticalAlign=middle;resizable=0;points=[];" vertex="1" connectable="0" parent="1aA6njlf_XzDuwM_Yvuv-31">
          <mxGeometry x="0.2" relative="1" as="geometry">
            <mxPoint as="offset" />
          </mxGeometry>
        </mxCell>
        <mxCell id="1aA6njlf_XzDuwM_Yvuv-34" value="" style="edgeStyle=orthogonalEdgeStyle;rounded=0;orthogonalLoop=1;jettySize=auto;html=1;" edge="1" parent="WIyWlLk6GJQsqaUBKTNV-1" source="1aA6njlf_XzDuwM_Yvuv-30">
          <mxGeometry relative="1" as="geometry">
            <mxPoint x="500" y="350" as="targetPoint" />
          </mxGeometry>
        </mxCell>
        <mxCell id="1aA6njlf_XzDuwM_Yvuv-30" value="保存设备参数" style="rounded=1;whiteSpace=wrap;html=1;fontSize=12;glass=0;strokeWidth=1;shadow=0;" vertex="1" parent="WIyWlLk6GJQsqaUBKTNV-1">
          <mxGeometry x="390" y="330" width="60" height="40" as="geometry" />
        </mxCell>
        <mxCell id="1aA6njlf_XzDuwM_Yvuv-38" value="结束" style="ellipse;whiteSpace=wrap;html=1;shadow=0;strokeWidth=1;spacing=6;spacingTop=-4;" vertex="1" parent="WIyWlLk6GJQsqaUBKTNV-1">
          <mxGeometry x="740" y="310" width="80" height="80" as="geometry" />
        </mxCell>
        <mxCell id="1aA6njlf_XzDuwM_Yvuv-41" value="" style="edgeStyle=orthogonalEdgeStyle;rounded=0;orthogonalLoop=1;jettySize=auto;html=1;" edge="1" parent="WIyWlLk6GJQsqaUBKTNV-1" source="1aA6njlf_XzDuwM_Yvuv-27" target="1aA6njlf_XzDuwM_Yvuv-40">
          <mxGeometry relative="1" as="geometry">
            <mxPoint x="220" y="350" as="sourcePoint" />
            <mxPoint x="390" y="350" as="targetPoint" />
          </mxGeometry>
        </mxCell>
        <mxCell id="1aA6njlf_XzDuwM_Yvuv-42" value="" style="edgeStyle=orthogonalEdgeStyle;rounded=0;orthogonalLoop=1;jettySize=auto;html=1;exitX=0.5;exitY=0;exitDx=0;exitDy=0;entryX=0.5;entryY=0;entryDx=0;entryDy=0;" edge="1" parent="WIyWlLk6GJQsqaUBKTNV-1" source="1aA6njlf_XzDuwM_Yvuv-40" target="1aA6njlf_XzDuwM_Yvuv-38">
          <mxGeometry relative="1" as="geometry">
            <mxPoint x="740" y="400" as="sourcePoint" />
            <mxPoint x="680" y="300" as="targetPoint" />
            <Array as="points">
              <mxPoint x="310" y="280" />
              <mxPoint x="780" y="280" />
            </Array>
          </mxGeometry>
        </mxCell>
        <mxCell id="1aA6njlf_XzDuwM_Yvuv-43" value="否" style="edgeLabel;html=1;align=center;verticalAlign=middle;resizable=0;points=[];" vertex="1" connectable="0" parent="1aA6njlf_XzDuwM_Yvuv-42">
          <mxGeometry x="-0.5202" y="-1" relative="1" as="geometry">
            <mxPoint as="offset" />
          </mxGeometry>
        </mxCell>
        <mxCell id="1aA6njlf_XzDuwM_Yvuv-40" value="历史指令是否下发完成" style="rhombus;whiteSpace=wrap;html=1;shadow=0;fontFamily=Helvetica;fontSize=12;align=center;strokeWidth=1;spacing=6;spacingTop=-4;" vertex="1" parent="WIyWlLk6GJQsqaUBKTNV-1">
          <mxGeometry x="260" y="310" width="100" height="80" as="geometry" />
        </mxCell>
        <mxCell id="1aA6njlf_XzDuwM_Yvuv-48" value="" style="edgeStyle=orthogonalEdgeStyle;rounded=0;orthogonalLoop=1;jettySize=auto;html=1;" edge="1" parent="WIyWlLk6GJQsqaUBKTNV-1" source="WIyWlLk6GJQsqaUBKTNV-10" target="1aA6njlf_XzDuwM_Yvuv-47">
          <mxGeometry relative="1" as="geometry">
            <mxPoint x="600" y="350" as="sourcePoint" />
            <mxPoint x="720" y="350" as="targetPoint" />
          </mxGeometry>
        </mxCell>
        <mxCell id="1aA6njlf_XzDuwM_Yvuv-49" value="是" style="edgeLabel;html=1;align=center;verticalAlign=middle;resizable=0;points=[];" vertex="1" connectable="0" parent="1aA6njlf_XzDuwM_Yvuv-48">
          <mxGeometry x="-0.1" y="-3" relative="1" as="geometry">
            <mxPoint as="offset" />
          </mxGeometry>
        </mxCell>
        <mxCell id="1aA6njlf_XzDuwM_Yvuv-47" value="下发指令" style="whiteSpace=wrap;html=1;shadow=0;strokeWidth=1;spacing=6;spacingTop=-4;" vertex="1" parent="WIyWlLk6GJQsqaUBKTNV-1">
          <mxGeometry x="630" y="330" width="80" height="40" as="geometry" />
        </mxCell>
        <mxCell id="1aA6njlf_XzDuwM_Yvuv-54" value="" style="edgeStyle=orthogonalEdgeStyle;rounded=0;orthogonalLoop=1;jettySize=auto;html=1;entryX=0.5;entryY=1;entryDx=0;entryDy=0;" edge="1" parent="WIyWlLk6GJQsqaUBKTNV-1" source="1aA6njlf_XzDuwM_Yvuv-50" target="1aA6njlf_XzDuwM_Yvuv-47">
          <mxGeometry relative="1" as="geometry">
            <mxPoint x="650" y="440" as="targetPoint" />
          </mxGeometry>
        </mxCell>
        <mxCell id="1aA6njlf_XzDuwM_Yvuv-50" value="等待设备上线" style="whiteSpace=wrap;html=1;shadow=0;strokeWidth=1;spacing=6;spacingTop=-4;" vertex="1" parent="WIyWlLk6GJQsqaUBKTNV-1">
          <mxGeometry x="510" y="420" width="80" height="40" as="geometry" />
        </mxCell>
      </root>
    </mxGraphModel>
  </diagram>
</mxfile>
